<svg id="Layer_1" data-name="Layer 1" xmlns="http://www.w3.org/2000/svg" xmlns:xlink="http://www.w3.org/1999/xlink" viewBox="0 0 2000 1000"><defs><style>.cls-1{fill:none;}.cls-2{clip-path:url(#clip-path);}.cls-3{fill:#ad4962;}.cls-4{fill:#293343;}.cls-5{clip-path:url(#clip-path-2);}.cls-6{fill:url(#linear-gradient);}</style><clipPath id="clip-path"><rect class="cls-1" width="2000" height="1000"/></clipPath><clipPath id="clip-path-2"><path class="cls-1" d="M1497.79,461h0l-29.49-48.65-5.68-9.36-.84-1.38H1537l-.87,1.38-5.93,9.36-30.8,48.66-.19.3-.64,1Zm125.62-94.36-22.34,35h44.61L1551.74,550l-22.15-36.54-.8-1.32-4.07-6.72-.46-.76-.34-.56.63-1,.19-.3,57.2-90.44,5.92-9.36.88-1.38,22.11-35H1388.37l21.2,35,.84,1.38,5.68,9.36,55,90.78-.21.32h0l.81,1.32-.83,1.3-4.19,6.63-.83,1.3-22.79,36-90-148.39h43l-21.69-35H1280l161.92,267.09,49.59-78.4.82-1.3,4.06-6.42.83-1.3.33.53.48.78,4,6.46.81,1.32.71,1.16,47.39,77.19L1720,366.68Z"/></clipPath><linearGradient id="linear-gradient" x1="6046.23" y1="1000" x2="6047.23" y2="1000" gradientTransform="matrix(440, 0, 0, -440, -2659060, 440500.24)" gradientUnits="userSpaceOnUse"><stop offset="0" stop-color="#8e1d81"/><stop offset="1" stop-color="#dedc00"/></linearGradient></defs><title>고양이 잡지(svg)1</title><g class="cls-2"><rect class="cls-3" x="1000" width="1000" height="1000"/><rect class="cls-4" x="1000" width="1000" height="1000"/><g class="cls-5"><rect class="cls-6" x="1280" y="366.68" width="440" height="267.11"/></g></g></svg>